<svg width="16" height="16" viewBox="0 0 16 16" fill="none" xmlns="http://www.w3.org/2000/svg">
<path d="M5.03168 14.3339C11.0694 14.3339 14.3718 9.33171 14.3718 4.99379C14.3718 4.85171 14.3718 4.71027 14.3622 4.56947C15.0047 4.10477 15.5593 3.52939 16 2.87027C15.4009 3.13574 14.7653 3.30984 14.1146 3.38675C14.7998 2.9765 15.3127 2.33124 15.5578 1.57107C14.9134 1.95344 14.2084 2.22292 13.4733 2.36787C12.4557 1.28588 10.8389 1.02106 9.52931 1.7219C8.21976 2.42275 7.54322 3.91496 7.87904 5.36179C5.23961 5.22947 2.78046 3.98279 1.1136 1.93203C0.242319 3.43196 0.687352 5.35082 2.12992 6.31411C1.60751 6.29862 1.0965 6.1577 0.64 5.90323C0.64 5.91667 0.64 5.93075 0.64 5.94483C0.640428 7.50745 1.74192 8.85333 3.2736 9.16275C2.79032 9.29455 2.28325 9.31382 1.79136 9.21907C2.22141 10.5563 3.45381 11.4724 4.85824 11.4987C3.69583 12.4123 2.25988 12.9082 0.78144 12.9067C0.520258 12.9062 0.259331 12.8904 0 12.8594C1.50121 13.8228 3.24794 14.3338 5.03168 14.3314" fill="black"/>
</svg>
