<svg width="16" height="16" viewBox="0 0 16 16" fill="none" xmlns="http://www.w3.org/2000/svg">
<g clip-path="url(#clip0_1_1550)">
<path d="M8 0C3.58352 0 0 3.58352 0 8C0 12.4165 3.58352 16 8 16C12.4078 16 16 12.4165 16 8C16 3.58352 12.4078 0 8 0ZM13.2842 3.68763C14.2386 4.85032 14.8113 6.33406 14.8286 7.93926C14.603 7.89587 12.3471 7.43602 10.0738 7.72234C10.0217 7.60955 9.9783 7.48806 9.92626 7.36659C9.78742 7.03688 9.63123 6.69848 9.47506 6.37744C11.9913 5.35358 13.1367 3.87853 13.2842 3.68763ZM8 1.18004C9.73536 1.18004 11.3232 1.8308 12.5293 2.89805C12.4078 3.07158 11.3753 4.4512 8.94578 5.36226C7.82646 3.30586 6.58568 1.62256 6.3948 1.36226C6.90672 1.24078 7.44469 1.18004 8 1.18004ZM5.09328 1.82213C5.27549 2.06507 6.49024 3.75706 7.6269 5.77006C4.43384 6.62038 1.61389 6.60307 1.3102 6.60307C1.7527 4.4859 3.18438 2.72451 5.09328 1.82213ZM1.16269 8.00867C1.16269 7.93926 1.16269 7.86986 1.16269 7.80043C1.4577 7.8091 4.77224 7.8525 8.18221 6.82864C8.38178 7.21042 8.56398 7.60086 8.73752 7.99133C8.65075 8.01736 8.55531 8.04339 8.46854 8.06941C4.94578 9.20608 3.07158 12.3124 2.91541 12.5727C1.8308 11.3666 1.16269 9.76139 1.16269 8.00867ZM8 14.8373C6.42083 14.8373 4.96312 14.2993 3.8091 13.397C3.93059 13.1453 5.31888 10.4729 9.17136 9.12798C9.18872 9.11931 9.19739 9.11931 9.21475 9.11062C10.1779 11.6009 10.5683 13.692 10.6724 14.2907C9.84816 14.6464 8.94578 14.8373 8 14.8373ZM11.8091 13.666C11.7397 13.2495 11.3753 11.2538 10.4816 8.79827C12.6247 8.45987 14.4989 9.01518 14.7332 9.09328C14.4382 10.9935 13.3449 12.6334 11.8091 13.666Z" fill="black"/>
</g>
<defs>
<clipPath id="clip0_1_1550">
<rect width="16" height="16" fill="white"/>
</clipPath>
</defs>
</svg>
