<svg width="16" height="16" viewBox="0 0 16 16" fill="none" xmlns="http://www.w3.org/2000/svg">
<path d="M8.0265 2.33301C8.03522 2.33302 8.04604 2.33304 8.05887 2.33307L8.30401 2.33409C8.80038 2.33695 9.83926 2.34716 10.9286 2.38363L11.293 2.39678C12.5091 2.44405 13.7201 2.52632 14.2511 2.66953C14.9395 2.85471 15.4816 3.40035 15.6656 4.09325C15.9797 5.27296 15.9988 7.65675 15.9999 7.94136V7.99733C15.9988 8.28193 15.9797 10.6656 15.6656 11.8455C15.4816 12.5383 14.9395 13.084 14.2511 13.2693C13.7201 13.4124 12.5091 13.4947 11.293 13.5419L10.9286 13.5551C9.71822 13.5956 8.57014 13.6037 8.15932 13.6053L8.05887 13.6056C8.04604 13.6057 8.03522 13.6057 8.0265 13.6057H7.97349C7.96477 13.6057 7.95395 13.6057 7.94112 13.6056L7.84066 13.6053C6.97795 13.6019 2.86389 13.5699 1.7489 13.2693C1.06054 13.084 0.518357 12.5383 0.334357 11.8455C0.0303896 10.7037 0.00275626 8.43447 0.000244141 8.03131V7.90737C0.00275626 7.50421 0.0303896 5.23491 0.334357 4.09325C0.518357 3.40035 1.06054 2.85471 1.7489 2.66953C2.8108 2.38311 6.59294 2.34045 7.69598 2.33409L7.94112 2.33307C7.95395 2.33304 7.96477 2.33302 7.97349 2.33301H8.0265ZM6.36363 5.59035V10.3483L10.5454 7.96944L6.36363 5.59035Z" fill="black"/>
</svg>
